<!--?xml version="1.0" encoding="utf-8"?-->
<!-- Generator: Adobe Illustrator 18.0.0, SVG Export Plug-In . SVG Version: 6.00 Build 0)  -->

<svg version="1.1" id="_x31_0" xmlns="http://www.w3.org/2000/svg" xmlns:xlink="http://www.w3.org/1999/xlink" x="0px" y="0px" viewBox="0 0 512 512" style="width: 512px; height: 512px; opacity: 1;" xml:space="preserve">
<style type="text/css">
	.st0{fill:#FFFFFF;}
</style>
<g>
	<path class="st0" d="M184.954,308.801l-65.469,20.816c-18.234,5.79-32.125,20.723-36.648,39.317l-15.203,82.981
		c-4.118,17.102,7.328,34.07,24.703,36.605l127.23,21.493c6.066,0.902,12.218,1.538,18.324,1.988V358.074
		C212.919,351.875,192.877,333.054,184.954,308.801z" style="fill: rgb(75, 75, 75);"></path>
	<path class="st0" d="M444.349,451.914l-15.202-82.981c-4.477-18.594-18.367-33.527-36.649-39.317l-65.469-20.816
		c-7.918,24.254-27.965,43.074-52.938,49.274V512c6.153-0.406,12.262-1.086,18.367-1.988l127.188-21.493
		C437.064,485.984,448.514,469.016,444.349,451.914z" style="fill: rgb(75, 75, 75);"></path>
	<path class="st0" d="M131.033,126.687c0.226,15.836-0.817,31.63-3.078,47.282c0,2.309,0.906,4.434,2.446,5.93
		c1.492,1.539,3.617,2.488,5.926,2.488c2.309,0,4.387-0.949,5.926-2.488c1.539-1.496,2.446-3.621,2.446-5.93
		c-2.082-14.25-3.125-28.637-3.125-43.027c0-1.402,0.046-2.852,0.046-4.254l0.406-29.137l16.383,9.094l18.773,10.453l6.426,3.574
		l23.426,13.023c-0.004,0.004-0.008,0.004-0.012,0.008l20.676,11.492l2.851,1.582c0.004-0.004,0.008-0.004,0.016-0.004l0.008,0.004
		l25.43,14.117l25.519-14.164l2.758-1.535l20.859-11.582l23.254-12.942l6.426-3.574l18.825-10.453l47.144-26.195L256.002,0
		L111.213,80.45l19.32,10.675L131.033,126.687z" style="fill: rgb(75, 75, 75);"></path>
	<path class="st0" d="M346.966,233.512l0.18-22.622c0.046-3.886-0.18-7.683-0.633-11.48l0.023-0.012l0.543-0.27v-69.41
		l-10.454,5.794l-17.148,9.5l-0.016,0.011c0-0.004-0.004-0.007-0.008-0.011l-16.195,9.004l-4.707,2.625c0,0,0.004,0.008,0.008,0.011
		l-19.305,10.711l-14.976,8.328l-8.278,4.57l-8.234-4.57l-14.977-8.328l-19.23-10.676l-4.84-2.671l-16.062-8.91l-17.285-9.594
		l-10.406-5.794v69.41l0.699,0.348v0.011c-0.406,3.305-0.586,6.653-0.633,10.047l-0.18,22.621
		c-0.363,50.086,40.313,91.352,90.398,91.715C305.342,324.23,346.603,283.554,346.966,233.512z M255.435,301.246
		c-37.738-0.27-68.23-31.176-67.961-68.91l0.179-21.355v-0.012l0.027,0.012l2.711,1.402l65.61,34.206l65.606-34.206l2.918-1.524
		l-0.183,22.473C324.072,271.066,293.166,301.519,255.435,301.246z" style="fill: rgb(75, 75, 75);"></path>
</g>
</svg>
