<!--?xml version="1.0" encoding="utf-8"?-->
<!-- Generator: Adobe Illustrator 19.1.1, SVG Export Plug-In . SVG Version: 6.00 Build 0)  -->
<svg version="1.1" id="_x31_0" xmlns="http://www.w3.org/2000/svg" xmlns:xlink="http://www.w3.org/1999/xlink" x="0px" y="0px" viewBox="0 0 512 512" style="width: 512px; height: 512px; opacity: 1;" xml:space="preserve">
<style type="text/css">
	.st0{fill:#374149;}
</style>
<g>
	<path class="st0" d="M498.32,42.039H13.683C6.082,42.039,0,48.122,0,55.719v297.602h72.883
		c4.793-20.028,17.742-36.871,35.062-46.973c2.015-1.157,4.054-2.274,6.183-3.234c-0.012-0.008-0.023-0.024-0.031-0.035
		c0.047-0.023,0.094-0.055,0.145-0.078c-5.68-5.758-10.242-12.641-13.52-20.16H51.602V93.641h406.465l2.336,0.004v188.203v0.992
		h-49.121c-2.926,6.782-6.977,12.879-11.782,18.27c-0.562,0.606-1.082,1.246-1.672,1.828c0.016,0.008,0.027,0.016,0.043,0.023
		c-0.039,0.039-0.07,0.082-0.11,0.122c20.481,9.359,36,27.84,41.359,50.238H512V55.719C512,48.122,505.762,42.039,498.32,42.039z" style="fill: rgb(75, 75, 75);"></path>
	<path class="st0" d="M139.519,296.442c6.481,3.598,13.844,5.598,21.684,5.598c7.84,0,15.199-2,21.68-5.598
		c4.32-2.402,8.16-5.442,11.359-9.043c1.359-1.438,2.641-2.957,3.679-4.558c2.962-4.16,5.122-8.801,6.481-13.758
		c1.039-3.762,1.598-7.762,1.598-11.84c0-24.722-20.078-44.722-44.797-44.722c-24.722,0-44.801,20-44.801,44.722
		c0,9.519,2.961,18.32,8.078,25.598C128.32,288.442,133.519,293.082,139.519,296.442z" style="fill: rgb(75, 75, 75);"></path>
	<path class="st0" d="M202.207,358.981c2.214-1.286,4.434-2.562,6.801-3.625l-0.035-0.032c0.054-0.023,0.098-0.058,0.148-0.082
		c-0.64-0.641-1.199-1.282-1.839-1.922c-8.481-9.438-14.321-21.282-16.238-34.398c-1.524-0.481-3.122-0.801-4.723-1.039
		c-3.038-0.641-6.16-0.883-9.277-0.883h-31.68c-3.121,0-6.242,0.242-9.281,0.883c-19.36,3.359-35.199,17.199-41.442,35.438
		c-1.918,5.441-2.958,11.281-2.958,17.359v47.039h74.157C167.57,392.645,181.762,371.094,202.207,358.981z" style="fill: rgb(75, 75, 75);"></path>
	<path class="st0" d="M375.922,317.883c-3.038-0.641-6.16-0.883-9.281-0.883h-31.68c-3.121,0-6.238,0.242-9.278,0.883
		c-1.601,0.238-3.202,0.558-4.722,1.039c-1.918,13.117-7.758,24.961-16.238,34.398c-0.535,0.535-1.023,1.07-1.535,1.605
		l-0.238,0.172c0.015,0.008,0.027,0.02,0.046,0.027c-0.039,0.039-0.074,0.078-0.113,0.118
		c24.078,11.117,41.359,34.718,43.277,62.477h74.16V370.68c0-6.078-1.038-11.918-2.957-17.359
		C411.121,335.082,395.282,321.242,375.922,317.883z" style="fill: rgb(75, 75, 75);"></path>
	<path class="st0" d="M234.402,348.68c1.117,0.641,2.16,1.203,3.359,1.679h0.078c2.801,1.282,5.679,2.321,8.801,2.962
		c0.961,0.16,1.922,0.32,2.961,0.48c2.082,0.321,4.238,0.481,6.398,0.481s4.32-0.16,6.402-0.481c1.039-0.16,2-0.32,2.961-0.48
		c3.118-0.641,6-1.68,8.797-2.962h0.082c1.199-0.476,2.238-1.038,3.359-1.679c11.762-6.398,20.32-18,22.558-31.758
		c0.402-2.402,0.641-4.883,0.641-7.442c0-1.68-0.078-3.282-0.32-4.879c-0.161-2.32-0.641-4.641-1.278-6.801
		c-1.442-5.519-3.922-10.558-7.363-14.961c-0.719-1.199-1.68-2.32-2.797-3.442c-8.082-9.039-19.922-14.637-33.043-14.637
		c-13.117,0-24.957,5.598-33.039,14.637c-1.121,1.122-2.078,2.242-2.801,3.442c-3.438,4.402-5.918,9.442-7.359,14.961
		c-0.641,2.238-1.118,4.481-1.359,6.879c-0.16,1.519-0.238,3.203-0.238,4.801c0,2.558,0.238,5.039,0.637,7.442
		C214.082,330.68,222.641,342.282,234.402,348.68z" style="fill: rgb(75, 75, 75);"></path>
	<path class="st0" d="M317.762,287.398c3.199,3.602,7.039,6.641,11.359,9.043c6.481,3.598,13.84,5.598,21.68,5.598
		s15.199-2,21.68-5.598c6-3.359,11.202-8,15.038-13.602c5.122-7.278,8.082-16.078,8.082-25.598
		c0-24.722-20.082-44.722-44.801-44.722c-24.718,0-44.801,20-44.801,44.722c0,4.078,0.562,8.078,1.602,11.84
		c1.359,4.957,3.519,9.598,6.481,13.758C315.121,284.442,316.402,285.961,317.762,287.398z" style="fill: rgb(75, 75, 75);"></path>
	<path class="st0" d="M281.282,370.199v-0.238c-0.078,0.078-0.161,0.078-0.161,0.078c-0.078,0-0.078,0.082-0.16,0.082
		c-2.961-0.641-6-0.879-9.121-0.879h-0.957h-10.402h-8.962h-10.398h-0.961c-3.117,0-6.16,0.238-9.117,0.879
		c-0.082,0-0.082-0.082-0.16-0.082c0,0-0.082,0-0.161-0.078v0.238c-23.359,4.082-41.679,23.52-43.922,47.52
		c-0.238,1.679-0.32,3.441-0.32,5.203v5.199v10.398v31.094v0.187v0.16h139.038V438.52v-10.398v-5.199
		c0-1.762-0.078-3.524-0.316-5.203C322.961,393.719,304.641,374.282,281.282,370.199z" style="fill: rgb(75, 75, 75);"></path>
</g>
</svg>
